<svg xmlns="http://www.w3.org/2000/svg" width="256" height="256" viewBox="0 0 256 256">
  <defs>
    <linearGradient id="bgGrad" x1="0%" y1="0%" x2="100%" y2="100%">
      <stop offset="0%" style="stop-color:#002d9c;stop-opacity:1"/>
      <stop offset="100%" style="stop-color:#001d6c;stop-opacity:1"/>
    </linearGradient>
  </defs>

  <!-- Background -->
  <rect width="256" height="256" rx="48" fill="url(#bgGrad)"/>

  <!-- === LITERA D === x0=31, cell=15px, block=12x12, rx=3 -->
  <!-- r0 #a6c8ff y=77 -->
  <rect x="31" y="77" width="12" height="12" rx="3" fill="#a6c8ff"/>
  <rect x="46" y="77" width="12" height="12" rx="3" fill="#a6c8ff"/>
  <!-- r1 #78a9ff y=92 -->
  <rect x="31" y="92" width="12" height="12" rx="3" fill="#78a9ff"/>
  <rect x="61" y="92" width="12" height="12" rx="3" fill="#78a9ff"/>
  <!-- r2 #a6c8ff y=107 -->
  <rect x="31" y="107" width="12" height="12" rx="3" fill="#a6c8ff"/>
  <rect x="76" y="107" width="12" height="12" rx="3" fill="#a6c8ff"/>
  <!-- r3 #78a9ff y=122 -->
  <rect x="31" y="122" width="12" height="12" rx="3" fill="#78a9ff"/>
  <rect x="76" y="122" width="12" height="12" rx="3" fill="#78a9ff"/>
  <!-- r4 #a6c8ff y=137 -->
  <rect x="31" y="137" width="12" height="12" rx="3" fill="#a6c8ff"/>
  <rect x="76" y="137" width="12" height="12" rx="3" fill="#a6c8ff"/>
  <!-- r5 #78a9ff y=152 -->
  <rect x="31" y="152" width="12" height="12" rx="3" fill="#78a9ff"/>
  <rect x="61" y="152" width="12" height="12" rx="3" fill="#78a9ff"/>
  <!-- r6 #a6c8ff y=167 -->
  <rect x="31" y="167" width="12" height="12" rx="3" fill="#a6c8ff"/>
  <rect x="46" y="167" width="12" height="12" rx="3" fill="#a6c8ff"/>

  <!-- === LITERA B === x0=100 -->
  <!-- r0 #a6c8ff y=77 -->
  <rect x="100" y="77" width="12" height="12" rx="3" fill="#a6c8ff"/>
  <rect x="115" y="77" width="12" height="12" rx="3" fill="#a6c8ff"/>
  <rect x="130" y="77" width="12" height="12" rx="3" fill="#a6c8ff"/>
  <!-- r1 #78a9ff y=92 -->
  <rect x="100" y="92" width="12" height="12" rx="3" fill="#78a9ff"/>
  <rect x="145" y="92" width="12" height="12" rx="3" fill="#78a9ff"/>
  <!-- r2 #a6c8ff y=107 -->
  <rect x="100" y="107" width="12" height="12" rx="3" fill="#a6c8ff"/>
  <rect x="145" y="107" width="12" height="12" rx="3" fill="#a6c8ff"/>
  <!-- r3 #78a9ff y=122 -->
  <rect x="100" y="122" width="12" height="12" rx="3" fill="#78a9ff"/>
  <rect x="115" y="122" width="12" height="12" rx="3" fill="#78a9ff"/>
  <rect x="130" y="122" width="12" height="12" rx="3" fill="#78a9ff"/>
  <!-- r4 #a6c8ff y=137 -->
  <rect x="100" y="137" width="12" height="12" rx="3" fill="#a6c8ff"/>
  <rect x="145" y="137" width="12" height="12" rx="3" fill="#a6c8ff"/>
  <!-- r5 #78a9ff y=152 -->
  <rect x="100" y="152" width="12" height="12" rx="3" fill="#78a9ff"/>
  <rect x="145" y="152" width="12" height="12" rx="3" fill="#78a9ff"/>
  <!-- r6 #a6c8ff y=167 -->
  <rect x="100" y="167" width="12" height="12" rx="3" fill="#a6c8ff"/>
  <rect x="115" y="167" width="12" height="12" rx="3" fill="#a6c8ff"/>
  <rect x="130" y="167" width="12" height="12" rx="3" fill="#a6c8ff"/>

  <!-- === CYFRA 2 === x0=169 -->
  <!-- r0 #a6c8ff y=77 -->
  <rect x="184" y="77" width="12" height="12" rx="3" fill="#a6c8ff"/>
  <rect x="199" y="77" width="12" height="12" rx="3" fill="#a6c8ff"/>
  <!-- r1 #78a9ff y=92 -->
  <rect x="169" y="92" width="12" height="12" rx="3" fill="#78a9ff"/>
  <rect x="214" y="92" width="12" height="12" rx="3" fill="#78a9ff"/>
  <!-- r2 #a6c8ff y=107 -->
  <rect x="214" y="107" width="12" height="12" rx="3" fill="#a6c8ff"/>
  <!-- r3 #78a9ff y=122 -->
  <rect x="184" y="122" width="12" height="12" rx="3" fill="#78a9ff"/>
  <rect x="199" y="122" width="12" height="12" rx="3" fill="#78a9ff"/>
  <!-- r4 #a6c8ff y=137 -->
  <rect x="169" y="137" width="12" height="12" rx="3" fill="#a6c8ff"/>
  <!-- r5 #78a9ff y=152 -->
  <rect x="169" y="152" width="12" height="12" rx="3" fill="#78a9ff"/>
  <!-- r6 #a6c8ff y=167 -->
  <rect x="169" y="167" width="12" height="12" rx="3" fill="#a6c8ff"/>
  <rect x="184" y="167" width="12" height="12" rx="3" fill="#a6c8ff"/>
  <rect x="199" y="167" width="12" height="12" rx="3" fill="#a6c8ff"/>
  <rect x="214" y="167" width="12" height="12" rx="3" fill="#a6c8ff"/>

  <!-- Bottom indicator bars — teal (IBM) -->
  <rect x="16"  y="222" width="48" height="16" rx="4" fill="#17636c"/>
  <rect x="70"  y="222" width="48" height="16" rx="4" fill="#17636c" opacity="0.7"/>
  <rect x="124" y="222" width="48" height="16" rx="4" fill="#17636c" opacity="0.5"/>
  <rect x="178" y="222" width="48" height="16" rx="4" fill="#17636c" opacity="0.3"/>
</svg>
