<svg xmlns="http://www.w3.org/2000/svg" width="256" height="256" viewBox="0 0 256 256">
  <defs>
    <linearGradient id="bgGrad" x1="0%" y1="0%" x2="100%" y2="100%">
      <stop offset="0%" style="stop-color:#005c84;stop-opacity:1"/>
      <stop offset="100%" style="stop-color:#002d42;stop-opacity:1"/>
    </linearGradient>
  </defs>

  <!-- Background -->
  <rect width="256" height="256" rx="48" fill="url(#bgGrad)"/>

  <!-- ============================================================ -->
  <!-- MY — górna połowa, bloki 8px, krok 10px                     -->
  <!-- Kolory: #e1f5fe (jasny) / #7fc9e8 (ciemniejszy)             -->
  <!-- ============================================================ -->

  <!-- === LITERA M === x0=16, cols: 16,26,36,46,56, rows y=14..74 -->
  <!-- r0 y=14: X...X -->
  <rect x="16" y="14" width="8" height="8" rx="2" fill="#e1f5fe"/>
  <rect x="56" y="14" width="8" height="8" rx="2" fill="#e1f5fe"/>
  <!-- r1 y=24: XX.XX -->
  <rect x="16" y="24" width="8" height="8" rx="2" fill="#7fc9e8"/>
  <rect x="26" y="24" width="8" height="8" rx="2" fill="#7fc9e8"/>
  <rect x="46" y="24" width="8" height="8" rx="2" fill="#7fc9e8"/>
  <rect x="56" y="24" width="8" height="8" rx="2" fill="#7fc9e8"/>
  <!-- r2 y=34: X.X.X -->
  <rect x="16" y="34" width="8" height="8" rx="2" fill="#e1f5fe"/>
  <rect x="36" y="34" width="8" height="8" rx="2" fill="#e1f5fe"/>
  <rect x="56" y="34" width="8" height="8" rx="2" fill="#e1f5fe"/>
  <!-- r3 y=44: X...X -->
  <rect x="16" y="44" width="8" height="8" rx="2" fill="#7fc9e8"/>
  <rect x="56" y="44" width="8" height="8" rx="2" fill="#7fc9e8"/>
  <!-- r4 y=54: X...X -->
  <rect x="16" y="54" width="8" height="8" rx="2" fill="#e1f5fe"/>
  <rect x="56" y="54" width="8" height="8" rx="2" fill="#e1f5fe"/>
  <!-- r5 y=64: X...X -->
  <rect x="16" y="64" width="8" height="8" rx="2" fill="#7fc9e8"/>
  <rect x="56" y="64" width="8" height="8" rx="2" fill="#7fc9e8"/>
  <!-- r6 y=74: X...X -->
  <rect x="16" y="74" width="8" height="8" rx="2" fill="#e1f5fe"/>
  <rect x="56" y="74" width="8" height="8" rx="2" fill="#e1f5fe"/>

  <!-- === LITERA Y === x0=76, cols: 76,86,96,106,116, rows y=14..74 -->
  <!-- r0 y=14: X...X -->
  <rect x="76"  y="14" width="8" height="8" rx="2" fill="#e1f5fe"/>
  <rect x="116" y="14" width="8" height="8" rx="2" fill="#e1f5fe"/>
  <!-- r1 y=24: X...X -->
  <rect x="76"  y="24" width="8" height="8" rx="2" fill="#7fc9e8"/>
  <rect x="116" y="24" width="8" height="8" rx="2" fill="#7fc9e8"/>
  <!-- r2 y=34: .X.X. -->
  <rect x="86"  y="34" width="8" height="8" rx="2" fill="#e1f5fe"/>
  <rect x="106" y="34" width="8" height="8" rx="2" fill="#e1f5fe"/>
  <!-- r3 y=44: ..X.. -->
  <rect x="96"  y="44" width="8" height="8" rx="2" fill="#7fc9e8"/>
  <!-- r4 y=54: ..X.. -->
  <rect x="96"  y="54" width="8" height="8" rx="2" fill="#e1f5fe"/>
  <!-- r5 y=64: ..X.. -->
  <rect x="96"  y="64" width="8" height="8" rx="2" fill="#7fc9e8"/>
  <!-- r6 y=74: ..X.. -->
  <rect x="96"  y="74" width="8" height="8" rx="2" fill="#e1f5fe"/>

  <!-- Separator line -->
  <rect x="16" y="88" width="224" height="2" rx="1" fill="#ffffff" opacity="0.15"/>

  <!-- ============================================================ -->
  <!-- SQL — dolna połowa, bloki 12px, krok 15px, orange            -->
  <!-- ============================================================ -->

  <!-- === LITERA S === x0=31, cols: 31,46,61,76 -->
  <rect x="46"  y="97"  width="12" height="12" rx="3" fill="#ffc97a"/>
  <rect x="61"  y="97"  width="12" height="12" rx="3" fill="#ffc97a"/>
  <rect x="76"  y="97"  width="12" height="12" rx="3" fill="#ffc97a"/>
  <rect x="31"  y="112" width="12" height="12" rx="3" fill="#f29111"/>
  <rect x="31"  y="127" width="12" height="12" rx="3" fill="#ffc97a"/>
  <rect x="46"  y="142" width="12" height="12" rx="3" fill="#f29111"/>
  <rect x="61"  y="142" width="12" height="12" rx="3" fill="#f29111"/>
  <rect x="76"  y="157" width="12" height="12" rx="3" fill="#ffc97a"/>
  <rect x="76"  y="172" width="12" height="12" rx="3" fill="#f29111"/>
  <rect x="31"  y="187" width="12" height="12" rx="3" fill="#ffc97a"/>
  <rect x="46"  y="187" width="12" height="12" rx="3" fill="#ffc97a"/>
  <rect x="61"  y="187" width="12" height="12" rx="3" fill="#ffc97a"/>

  <!-- === LITERA Q === x0=100, cols: 100,115,130,145 -->
  <rect x="115" y="97"  width="12" height="12" rx="3" fill="#ffc97a"/>
  <rect x="130" y="97"  width="12" height="12" rx="3" fill="#ffc97a"/>
  <rect x="100" y="112" width="12" height="12" rx="3" fill="#f29111"/>
  <rect x="145" y="112" width="12" height="12" rx="3" fill="#f29111"/>
  <rect x="100" y="127" width="12" height="12" rx="3" fill="#ffc97a"/>
  <rect x="145" y="127" width="12" height="12" rx="3" fill="#ffc97a"/>
  <rect x="100" y="142" width="12" height="12" rx="3" fill="#f29111"/>
  <rect x="145" y="142" width="12" height="12" rx="3" fill="#f29111"/>
  <rect x="100" y="157" width="12" height="12" rx="3" fill="#ffc97a"/>
  <rect x="130" y="157" width="12" height="12" rx="3" fill="#ffc97a"/>
  <rect x="145" y="157" width="12" height="12" rx="3" fill="#ffc97a"/>
  <rect x="100" y="172" width="12" height="12" rx="3" fill="#f29111"/>
  <rect x="145" y="172" width="12" height="12" rx="3" fill="#f29111"/>
  <rect x="115" y="187" width="12" height="12" rx="3" fill="#ffc97a"/>
  <rect x="130" y="187" width="12" height="12" rx="3" fill="#ffc97a"/>
  <rect x="145" y="187" width="12" height="12" rx="3" fill="#ffc97a"/>

  <!-- === LITERA L === x0=169, cols: 169,184,199,214 -->
  <rect x="169" y="97"  width="12" height="12" rx="3" fill="#ffc97a"/>
  <rect x="169" y="112" width="12" height="12" rx="3" fill="#f29111"/>
  <rect x="169" y="127" width="12" height="12" rx="3" fill="#ffc97a"/>
  <rect x="169" y="142" width="12" height="12" rx="3" fill="#f29111"/>
  <rect x="169" y="157" width="12" height="12" rx="3" fill="#ffc97a"/>
  <rect x="169" y="172" width="12" height="12" rx="3" fill="#f29111"/>
  <rect x="169" y="187" width="12" height="12" rx="3" fill="#ffc97a"/>
  <rect x="184" y="187" width="12" height="12" rx="3" fill="#ffc97a"/>
  <rect x="199" y="187" width="12" height="12" rx="3" fill="#ffc97a"/>
  <rect x="214" y="187" width="12" height="12" rx="3" fill="#ffc97a"/>

  <!-- Bottom indicator bars — MySQL orange -->
  <rect x="16"  y="222" width="48" height="16" rx="4" fill="#f29111"/>
  <rect x="70"  y="222" width="48" height="16" rx="4" fill="#f29111" opacity="0.7"/>
  <rect x="124" y="222" width="48" height="16" rx="4" fill="#f29111" opacity="0.5"/>
  <rect x="178" y="222" width="48" height="16" rx="4" fill="#f29111" opacity="0.3"/>
</svg>
